<?xml version="1.0" encoding="UTF-8"?>
<!DOCTYPE svg PUBLIC "-//W3C//DTD SVG 1.1//EN" "http://www.w3.org/Graphics/SVG/1.1/DTD/svg11.dtd">
<!-- Creator: CorelDRAW X7 -->
<svg xmlns="http://www.w3.org/2000/svg" xml:space="preserve" width="496px" height="480px" version="1.1" style="shape-rendering:geometricPrecision; text-rendering:geometricPrecision; image-rendering:optimizeQuality; fill-rule:evenodd; clip-rule:evenodd"
viewBox="0 0 496 480"
 xmlns:xlink="http://www.w3.org/1999/xlink">
 <defs>
  <style type="text/css">
   <![CDATA[
    .fil1 {fill:#06914B}
    .fil0 {fill:#0A58A6}
    .fil2 {fill:#F9C205}
    .fil3 {fill:#332C2B;fill-rule:nonzero}
   ]]>
  </style>
 </defs>
 <g id="Layer_x0020_1">
  <metadata id="CorelCorpID_0Corel-Layer"/>
  <g id="_2121486910224">
   <path class="fil0" d="M88 96c41,25 73,24 88,9 -28,45 -14,93 -15,119 -5,-24 -11,-76 -73,-128z"/>
   <ellipse class="fil0" cx="139" cy="71" rx="29" ry="27"/>
   <path class="fil1" d="M168 171c15,-46 51,-103 124,-141 2,-10 4,-20 6,-30 -94,55 -132,111 -130,171z"/>
   <path class="fil1" d="M168 196c36,-74 103,-113 161,-133 0,-3 12,-40 15,-50 -88,47 -175,120 -176,183z"/>
   <path class="fil1" d="M167 221c57,-92 169,-124 223,-130 -5,-2 -40,-13 -53,-18 -64,14 -160,80 -170,148z"/>
   <path class="fil1" d="M168 242c23,-37 71,-81 167,-99 -14,-5 -28,-9 -41,-14 -18,10 -114,50 -126,113z"/>
   <path class="fil2" d="M76 224c0,0 0,0 0,0 12,27 37,36 61,36 31,-1 62,-17 68,-38 8,0 16,0 25,0 -3,1 -5,3 -7,5 -4,6 -8,12 -12,18 -10,13 -26,18 -39,23 15,0 34,-5 47,-15 10,-8 19,-19 22,-31 8,0 16,0 24,0 -8,6 -12,9 -14,19 -4,24 -30,40 -51,47 22,2 50,-14 60,-30 3,-5 6,-10 7,-17 2,-8 5,-13 12,-19 7,0 14,0 21,0 -7,6 -9,12 -11,20 -1,7 -3,13 -6,18 -14,25 -36,36 -61,45 17,1 40,-8 54,-18 15,-12 23,-26 30,-43 1,-3 2,-6 3,-10 1,-5 4,-9 8,-12 7,1 14,0 21,0 -2,2 -4,4 -6,6 -3,5 -4,11 -5,17 0,5 -2,10 -4,15 -8,13 -18,26 -30,36 -5,3 -10,6 -15,9 -11,7 -22,11 -32,15 9,1 17,-1 26,-3 10,-4 20,-7 30,-13 18,-12 32,-26 39,-47 4,-11 5,-24 11,-34 8,0 16,0 24,0 -9,6 -7,12 -10,22 -4,19 -13,35 -26,48 -16,16 -32,28 -53,36 -29,12 -66,16 -98,9 -51,-12 -97,-49 -113,-114 0,0 0,0 0,0 0,0 0,0 0,0z"/>
   <path class="fil3" d="M26 420c1,1 1,2 2,2 0,1 0,1 1,2 0,0 0,0 1,0 0,1 0,1 1,1l0 1 -13 0 0 -1c1,0 1,0 1,0 0,-1 0,-1 0,-1 0,0 0,-1 0,-1 0,0 0,-1 0,-1 0,0 -1,-1 -2,-3l-3 -5c-1,-1 -1,-1 -1,-2 -1,0 -1,0 -1,-1 -1,0 -1,0 -2,0l0 0 0 10c0,0 0,1 0,1 0,1 0,1 0,1 0,1 0,1 0,1 1,0 1,0 1,1 0,0 1,0 1,0l0 1 -12 0 0 -1c1,0 1,0 1,-1 1,0 1,0 1,0 0,-1 0,-1 0,-2 0,0 1,-1 1,-1l0 -21c0,-1 -1,-1 -1,-2 0,0 0,-1 0,-1 0,0 0,0 -1,-1 0,0 0,0 -1,0l0 -2 12 0 0 2c0,0 -1,0 -1,0 0,1 -1,1 -1,1 0,0 0,1 0,1 0,1 0,1 0,2l0 9 0 0c1,0 2,-1 2,-1 0,0 1,0 1,-1 1,0 2,-1 3,-2 1,-2 2,-3 3,-4 0,-1 1,-1 1,-2 0,0 0,-1 0,-1 0,-1 0,-1 0,-2 -1,0 -1,0 -2,0l0 -2 12 0 0 2c-1,0 -1,0 -2,0 0,1 0,1 -1,1 -1,1 -1,2 -2,3l-7 8 8 12zm30 -26l0 8 -3 0c-1,-2 -1,-3 -2,-3 0,-1 0,-1 -1,-2 0,0 -1,0 -2,0l-6 0 0 11 4 0c0,0 1,0 1,0 1,0 1,-1 1,-1 0,0 1,-1 1,-2l3 0 0 10 -3 0c0,-1 -1,-2 -1,-3 0,0 0,0 -1,-1 0,0 -1,0 -1,0l-4 0 0 13 6 0c0,0 1,0 1,0 0,0 1,-1 1,-1 0,0 1,0 1,0 0,-1 0,-1 1,-1 0,-1 0,-1 0,-2 0,0 1,-1 1,-2l3 0 0 8 -23 0 0 -1c0,0 1,0 1,-1 0,0 1,0 1,0 0,-1 0,-1 0,-2 0,0 0,-1 0,-1l0 -21c0,-1 0,-1 0,-2 0,0 0,-1 0,-1 0,0 -1,0 -1,-1 0,0 -1,0 -1,0l0 -2 23 0zm40 2c0,0 -1,0 -1,1 -1,0 -1,0 -1,1 0,0 0,1 0,2l0 21c0,1 0,1 0,2 0,0 0,1 1,1 0,0 1,1 1,1l0 1 -12 0 0 -1c1,0 2,0 2,-1 0,0 0,0 1,0 0,0 0,-1 0,-1 0,-1 0,-1 0,-2l0 -12c0,-1 0,-3 0,-5 0,-1 0,-3 0,-3l0 0c-1,0 -1,1 -1,2 0,0 -1,1 -1,3l-6 17 -5 0 -6 -19c-1,-1 -1,-2 -1,-4l-1 0c1,3 1,6 1,10l0 11c0,1 0,2 0,2 0,0 0,1 0,1 1,0 1,1 2,1l0 1 -9 0 0 -1c1,0 1,0 2,-1 0,0 0,0 0,0 1,-1 1,-1 1,-2 0,0 0,-1 0,-1l0 -21c0,-1 0,-2 0,-2 0,-1 -1,-1 -1,-1 0,-1 -1,-1 -2,-1l0 -2 12 0 6 20 7 -20 11 0 0 2zm28 -2l0 8 -3 0c0,-2 -1,-3 -1,-3 -1,-1 -1,-1 -2,-2 0,0 -1,0 -2,0l-5 0 0 11 3 0c1,0 1,0 1,0 1,0 1,-1 1,-1 1,0 1,-1 1,-2l3 0 0 10 -3 0c0,-1 0,-2 -1,-3 0,0 0,0 -1,-1 0,0 0,0 -1,0l-3 0 0 13 5 0c0,0 1,0 1,0 1,0 1,-1 1,-1 1,0 1,0 1,0 0,-1 1,-1 1,-1 0,-1 0,-1 0,-2 1,0 1,-1 1,-2l3 0 0 8 -23 0 0 -1c1,0 1,0 1,-1 1,0 1,0 1,0 0,-1 0,-1 0,-2 0,0 0,-1 0,-1l0 -21c0,-1 0,-1 0,-2 0,0 0,-1 0,-1 0,0 0,0 -1,-1 0,0 0,0 -1,0l0 -2 23 0zm33 0l0 2c-1,0 -1,0 -1,0 0,0 -1,1 -1,1 0,0 0,0 0,1 0,0 0,1 0,2l0 26 -6 0 -11 -18c-1,-2 -2,-4 -3,-6l0 0c0,4 0,7 0,11l0 8c0,1 0,2 0,2 0,1 0,1 1,1 0,0 1,1 1,1l0 1 -8 0 0 -1c0,0 1,0 1,-1 0,0 1,0 1,0 0,-1 0,-1 0,-2 0,0 0,-1 0,-1l0 -21c0,-1 0,-2 0,-2 0,-1 0,-1 -1,-1 0,-1 -1,-1 -1,-1l0 -2 9 0 8 15c1,1 2,2 2,3 1,2 2,3 3,5l0 0c0,-4 0,-8 0,-12l0 -5c0,-1 0,-2 0,-2 0,-1 -1,-1 -1,-1 0,0 0,-1 0,-1 -1,0 -1,0 -2,0l0 -2 9 0zm11 32l0 -1c1,0 1,0 1,-1 1,0 1,0 1,0 1,-1 1,-1 1,-2 0,0 0,-1 0,-1l0 -24 -2 0c-1,0 -2,0 -2,0 -1,1 -1,1 -2,1 0,1 0,1 -1,2 0,1 0,2 0,3l-3 0 0 -9 27 0 0 9 -3 0c0,-2 -1,-2 -1,-3 0,0 0,-1 0,-1 -1,0 -1,-1 -1,-1 0,0 0,0 -1,-1 0,0 0,0 -1,0 0,0 -1,0 -1,0l-2 0 0 24c0,0 0,1 0,1 0,1 0,1 0,1 0,1 1,1 1,1 0,0 0,0 1,1 0,0 0,0 1,0l0 1 -13 0zm47 -32l0 8 -3 0c-1,-2 -1,-3 -1,-3 -1,-1 -1,-1 -2,-2 0,0 -1,0 -2,0l-5 0 0 11 3 0c0,0 1,0 1,0 1,0 1,-1 1,-1 1,0 1,-1 1,-2l3 0 0 10 -3 0c0,-1 0,-2 -1,-3 0,0 0,0 -1,-1 0,0 0,0 -1,0l-3 0 0 13 5 0c0,0 1,0 1,0 1,0 1,-1 1,-1 0,0 1,0 1,0 0,-1 1,-1 1,-1 0,-1 0,-1 0,-2 1,0 1,-1 1,-2l3 0 0 8 -23 0 0 -1c1,0 1,0 1,-1 1,0 1,0 1,0 0,-1 0,-1 0,-2 0,0 0,-1 0,-1l0 -21c0,-1 0,-1 0,-2 0,0 0,-1 0,-1 0,0 0,0 -1,-1 0,0 0,0 -1,0l0 -2 23 0zm17 32l-12 0 0 -1c0,0 1,0 1,-1 0,0 1,0 1,0 0,-1 0,-1 0,-2 0,0 0,-1 0,-1l0 -21c0,-1 0,-1 0,-2 0,0 0,-1 0,-1 0,0 -1,0 -1,-1 0,0 -1,0 -1,0l0 -2 13 0c2,0 4,0 5,1 1,0 2,0 3,1 1,0 2,1 2,1 1,1 1,2 2,3 0,1 0,2 0,3 0,1 0,3 -1,4 0,1 -1,2 -2,3 -1,0 -2,1 -3,2l0 0c1,0 2,1 2,2 1,1 2,2 2,3l2 3c1,2 1,3 2,4 1,0 1,1 2,1l0 1 -9 0c-1,-1 -2,-3 -3,-5l-2 -4c0,-1 -1,-2 -1,-3 -1,0 -1,-1 -1,-1 -1,0 -1,0 -2,0l-2 0 0 8c0,1 0,2 1,2 0,0 0,1 0,1 1,0 1,1 2,1l0 1zm-3 -29l0 13 3 0c1,0 2,0 3,0 1,-1 1,-1 2,-2 0,0 1,-1 1,-2 0,-1 0,-2 0,-3 0,-2 0,-3 -1,-4 -1,-1 -3,-2 -5,-2 -1,0 -2,0 -3,0zm32 24c0,0 0,1 0,1 0,1 0,1 0,1 0,1 1,1 1,1 0,0 0,0 1,1 0,0 0,0 1,0l0 1 -13 0 0 -1c1,0 1,0 2,-1 0,0 0,0 0,0 1,-1 1,-1 1,-2 0,0 0,-1 0,-1l0 -21c0,-1 0,-1 0,-2 0,0 0,-1 0,-1 -1,0 -1,-1 -1,-1 -1,0 -1,0 -2,0l0 -2 13 0 0 2c-1,0 -1,0 -2,0 0,1 0,1 0,1 -1,0 -1,1 -1,1 0,1 0,1 0,2l0 21zm24 -5l-10 0 -1 3c0,0 0,1 -1,2 0,0 0,1 0,1 0,2 1,3 3,3l0 1 -10 0 0 -1c0,0 1,0 1,-1 1,0 1,-1 1,-1 1,-1 1,-2 2,-3l9 -26 7 0 7 27c1,1 1,2 1,2 0,1 1,1 1,1 0,1 1,1 2,1l0 1 -13 0 0 -1c1,0 1,0 2,-1 0,0 0,-1 0,-1 0,-1 0,-1 0,-2 0,-1 0,-1 -1,-2l0 -3zm-9 -2l8 0 -4 -14 -4 14zm52 -20l0 2c-1,0 -1,0 -2,0 0,0 0,1 0,1 0,0 0,0 -1,1 0,0 0,1 0,2l0 26 -6 0 -10 -18c-2,-2 -3,-4 -3,-6l-1 0c1,4 1,7 1,11l0 8c0,1 0,2 0,2 0,1 0,1 0,1 1,0 1,1 2,1l0 1 -9 0 0 -1c1,0 1,0 2,-1 0,0 0,0 0,0 1,-1 1,-1 1,-2 0,0 0,-1 0,-1l0 -21c0,-1 0,-2 0,-2 0,-1 -1,-1 -1,-1 0,-1 -1,-1 -2,-1l0 -2 10 0 8 15c1,1 1,2 2,3 1,2 2,3 2,5l1 0c0,-4 -1,-8 -1,-12l0 -5c0,-1 0,-2 0,-2 0,-1 0,-1 0,-1 0,0 0,-1 -1,-1 0,0 0,0 -1,0l0 -2 9 0zm17 25c1,1 2,3 2,4 1,1 3,1 4,1 1,0 2,0 3,0 1,-1 1,-1 2,-2 0,-1 0,-1 0,-3 0,-1 0,-1 0,-2 -1,-1 -1,-1 -2,-2 -1,-1 -2,-1 -3,-2 -1,-1 -3,-1 -4,-2 -1,-1 -1,-1 -2,-2 -1,-1 -1,-2 -2,-3 0,-1 0,-2 0,-3 0,-2 0,-4 1,-5 1,-1 3,-2 4,-3 2,-1 4,-1 7,-1 1,0 2,0 4,0 1,0 2,0 4,1l0 7 -3 0c-1,-2 -1,-3 -1,-3 -1,-1 -1,-2 -2,-2 -1,0 -2,0 -3,0 -1,0 -1,0 -2,0 -1,0 -1,1 -2,1 0,1 0,2 0,3 0,1 0,1 0,2 0,1 1,1 2,2 1,1 2,1 3,2 2,1 4,2 5,3 1,1 2,2 2,3 1,2 1,3 1,4 0,2 0,4 -1,5 -1,2 -2,3 -4,4 -2,0 -4,1 -6,1 -1,0 -3,0 -5,0 -2,-1 -3,-1 -5,-1l0 -7 3 0zm36 8c-4,0 -8,-2 -10,-4 -2,-3 -4,-7 -4,-12 0,-4 1,-7 2,-9 1,-3 3,-5 5,-6 2,-2 5,-2 8,-2 4,0 8,1 10,4 3,3 4,7 4,12 0,3 -1,5 -1,8 -1,2 -2,3 -3,5 -2,1 -3,2 -5,3 -2,1 -4,1 -6,1zm-6 -17c0,5 0,8 2,11 1,2 2,3 5,3 1,0 2,0 3,-1 1,-1 1,-1 2,-3 0,-1 1,-2 1,-4 0,-1 0,-3 0,-5 0,-3 0,-6 0,-8 -1,-2 -2,-4 -3,-5 -1,-1 -2,-1 -3,-1 -3,0 -4,1 -6,3 -1,2 -1,5 -1,10zm28 9c1,1 1,3 2,4 1,1 3,1 4,1 1,0 2,0 3,0 1,-1 1,-1 2,-2 0,-1 0,-1 0,-3 0,-1 0,-1 0,-2 -1,-1 -1,-1 -2,-2 -1,-1 -2,-1 -3,-2 -1,-1 -3,-1 -4,-2 -1,-1 -1,-1 -2,-2 -1,-1 -1,-2 -2,-3 0,-1 0,-2 0,-3 0,-2 0,-4 1,-5 1,-1 2,-2 4,-3 2,-1 4,-1 7,-1 1,0 2,0 4,0 1,0 2,0 4,1l0 7 -3 0c-1,-2 -1,-3 -1,-3 -1,-1 -2,-2 -2,-2 -1,0 -2,0 -3,0 -1,0 -1,0 -2,0 -1,0 -1,1 -2,1 0,1 0,2 0,3 0,1 0,1 0,2 0,1 1,1 2,2 1,1 2,1 3,2 2,1 4,2 5,3 1,1 2,2 2,3 1,2 1,3 1,4 0,2 0,4 -1,5 -1,2 -2,3 -4,4 -2,0 -4,1 -6,1 -2,0 -3,0 -5,0 -2,-1 -3,-1 -5,-1l0 -7 3 0zm32 2c0,0 0,1 0,1 0,1 0,1 0,1 0,1 0,1 1,1 0,0 0,0 0,1 1,0 1,0 1,0l0 1 -12 0 0 -1c1,0 1,0 2,-1 0,0 0,0 0,0 0,-1 1,-1 1,-2 0,0 0,-1 0,-1l0 -21c0,-1 0,-1 0,-2 0,0 -1,-1 -1,-1 0,0 0,-1 0,-1 -1,0 -1,0 -2,0l0 -2 12 0 0 2c0,0 -1,0 -1,0 0,1 -1,1 -1,1 0,0 0,1 0,1 0,1 0,1 0,2l0 21zm24 -5l-10 0 -1 3c0,0 -1,1 -1,2 0,0 0,1 0,1 0,2 1,3 2,3l0 1 -10 0 0 -1c1,0 2,0 2,-1 0,0 1,-1 1,-1 1,-1 1,-2 1,-3l10 -26 6 0 8 27c0,1 1,2 1,2 0,1 0,1 1,1 0,1 1,1 1,1l0 1 -13 0 0 -1c1,0 2,0 2,-1 1,0 1,-1 1,-1 0,-1 0,-1 0,-2 0,-1 -1,-1 -1,-2l0 -3zm-10 -2l9 0 -4 -14 -5 14zm36 -20l0 2c0,0 -1,0 -1,0 0,0 0,1 -1,1 0,0 0,1 0,1 0,1 0,1 0,2l0 24 4 0c1,0 2,0 3,-1 0,0 1,0 1,-1 0,-1 1,-1 1,-2 0,-1 1,-2 1,-3l3 0 -1 9 -22 0 0 -1c1,0 1,0 2,-1 0,0 0,0 0,0 0,-1 1,-1 1,-2 0,0 0,-1 0,-1l0 -21c0,-1 0,-1 0,-2 0,0 -1,-1 -1,-1 0,0 0,0 0,-1 -1,0 -1,0 -2,0l0 -2 12 0z"/>
   <path class="fil3" d="M52 480l-11 0 0 -1c1,0 1,-1 1,-1 1,0 1,0 1,0 0,-1 0,-1 0,-1 0,-1 0,-1 0,-2l0 -18c0,-1 0,-1 0,-2 0,0 0,0 0,-1 0,0 0,0 -1,0 0,0 0,-1 -1,-1l0 -1 12 0c2,0 3,0 4,0 1,0 2,1 3,1 1,1 2,1 2,2 1,0 1,1 1,2 0,1 1,1 1,3 0,1 -1,2 -1,3 -1,1 -1,2 -2,2 -1,1 -2,2 -3,2l0 0c1,1 2,1 2,2 1,1 2,2 2,3l1 3c1,1 2,2 2,3 1,0 1,1 2,1l0 1 -8 0c-1,-1 -1,-3 -2,-5l-2 -3c-1,-1 -1,-2 -1,-3 -1,0 -1,0 -1,0 -1,-1 -1,-1 -2,-1l-1 0 0 7c0,1 0,2 0,2 0,1 0,1 0,1 1,0 1,1 2,1l0 1zm-2 -26l0 12 2 0c1,0 2,0 3,-1 0,0 1,0 1,-1 1,0 1,-1 1,-2 0,0 0,-1 0,-2 0,-2 0,-3 -1,-4 -1,-1 -2,-2 -4,-2 -1,0 -2,0 -2,0zm39 -2l0 6 -2 0c-1,-1 -1,-2 -2,-2 0,-1 0,-1 -1,-1 0,-1 -1,-1 -2,-1l-4 0 0 10 2 0c1,0 1,0 2,0 0,0 0,0 1,-1 0,0 0,-1 0,-2l2 0 0 9 -2 0c0,-1 0,-2 0,-2 -1,-1 -1,-1 -1,-1 -1,0 -1,0 -2,0l-2 0 0 11 4 0c0,0 1,0 1,0 1,0 1,-1 1,-1 0,0 1,0 1,0 0,-1 0,-1 0,-1 1,0 1,-1 1,-1 0,-1 0,-2 1,-2l3 0 -1 7 -20 0 0 -1c1,0 1,-1 1,-1 1,0 1,0 1,0 0,-1 0,-1 0,-1 0,-1 0,-1 0,-2l0 -18c0,-1 0,-1 0,-2 0,0 0,0 0,-1 0,0 0,0 -1,0 0,0 0,-1 -1,-1l0 -1 20 0zm13 23c0,1 0,2 0,2 0,0 0,1 0,1 0,0 1,0 1,0 0,1 1,1 1,1l0 1 -11 0 0 -1c1,0 1,-1 1,-1 1,0 1,0 1,0 0,-1 0,-1 0,-1 0,-1 0,-1 0,-2l0 -18c0,-1 0,-1 0,-2 0,0 0,0 0,-1 0,0 0,0 -1,0 0,0 0,-1 -1,-1l0 -1 12 0c4,0 6,1 8,2 2,1 3,3 3,6 0,1 -1,3 -2,4 -1,2 -2,3 -3,3 -2,1 -4,1 -6,1 -1,0 -2,0 -3,0l0 7zm0 -9l2 0c1,0 2,0 3,-1 1,0 1,-1 2,-1 0,-1 0,-2 0,-4 0,-1 0,-2 0,-3 -1,-1 -1,-2 -2,-2 -1,0 -2,-1 -3,-1 -1,0 -2,0 -2,0l0 12zm35 -9c0,-1 0,-2 0,-2 0,0 0,-1 -1,-1 0,0 0,-1 -1,-1l0 -1 9 0 0 1c-1,0 -1,1 -1,1 -1,0 -1,0 -1,0 0,1 0,1 0,1 0,1 0,1 0,2l0 13c0,2 0,3 -1,4 0,1 0,2 -1,3 -1,1 -1,2 -2,2 -1,1 -2,1 -3,1 -1,0 -2,0 -4,0 -1,0 -3,0 -4,0 -2,-1 -3,-1 -4,-2 -1,-1 -1,-2 -2,-3 0,-1 0,-3 0,-5l0 -13c0,-1 0,-1 0,-2 0,0 0,0 -1,-1 0,0 0,0 0,0 0,0 -1,-1 -1,-1l0 -1 10 0 0 1c0,0 -1,1 -1,1 0,0 0,0 0,0 -1,1 -1,1 -1,1 0,1 0,1 0,2l0 14c0,1 0,2 0,3 0,1 1,1 1,2 0,1 1,1 2,2 0,0 1,0 2,0 1,0 3,0 3,-1 1,0 1,-1 2,-2 0,-1 0,-3 0,-5l0 -13zm28 8c2,1 3,2 4,3 1,1 2,3 2,4 0,2 0,3 -1,4 0,1 -1,2 -2,2 -1,1 -2,1 -3,2 -1,0 -3,0 -5,0l-13 0 0 -1c1,0 1,-1 2,-1 0,0 0,0 0,0 0,-1 0,-1 1,-1 0,-1 0,-1 0,-2l0 -18c0,-1 0,-1 0,-2 0,0 -1,0 -1,-1 0,0 0,0 0,0 -1,0 -1,-1 -2,-1l0 -1 14 0c1,0 3,0 4,0 1,0 2,1 3,1 1,1 1,1 2,2 0,1 1,2 1,3 0,3 -2,6 -6,7l0 0zm-6 -1c1,0 2,0 3,0 1,-1 1,-1 2,-2 0,-1 0,-2 0,-3 0,-1 0,-2 0,-3 -1,0 -1,-1 -2,-1 -1,-1 -2,-1 -3,-1 -1,0 -2,0 -3,0l0 10 3 0zm-3 14c1,0 2,0 3,0 1,0 2,0 3,-1 1,0 1,-1 2,-1 0,-1 1,-2 1,-4 0,-1 -1,-2 -1,-2 0,-1 0,-2 -1,-2 0,0 -1,-1 -2,-1 0,0 -1,0 -2,0l-3 0 0 11zm29 -26l0 1c0,0 0,1 -1,1 0,0 0,0 0,0 0,1 -1,1 -1,1 0,1 0,1 0,2l0 21 4 0c1,0 2,0 2,-1 1,0 1,0 1,-1 1,0 1,-1 1,-2 1,-1 1,-1 1,-2l3 0 -1 8 -19 0 0 -1c0,0 1,-1 1,-1 0,0 0,0 1,0 0,-1 0,-1 0,-1 0,-1 0,-1 0,-2l0 -18c0,-1 0,-1 0,-2 0,0 0,0 0,-1 -1,0 -1,0 -1,0 0,0 -1,-1 -1,-1l0 -1 10 0zm21 23c0,0 0,1 0,1 0,1 1,1 1,1 0,1 0,1 0,1 0,0 0,0 1,0 0,1 0,1 1,1l0 1 -11 0 0 -1c0,0 1,-1 1,-1 0,0 1,0 1,0 0,-1 0,-1 0,-1 0,-1 0,-1 0,-2l0 -18c0,-1 0,-1 0,-2 0,0 0,0 0,-1 0,0 -1,0 -1,0 0,0 -1,-1 -1,-1l0 -1 11 0 0 1c-1,0 -1,1 -2,1 0,0 0,0 0,0 0,1 0,1 -1,1 0,1 0,1 0,2l0 18zm29 0c1,0 1,1 2,2 0,0 0,0 1,1 0,0 0,0 0,0 1,1 1,1 1,1l0 1 -11 0 0 -1c1,0 1,0 1,-1 0,0 1,0 1,0 0,0 0,-1 -1,-1 0,0 0,0 0,-1 0,0 -1,-1 -1,-2l-4 -5c0,-1 0,-1 -1,-1 0,-1 0,-1 0,-1 -1,0 -1,0 -2,0l0 0 0 8c0,0 0,1 0,1 0,1 0,1 0,1 0,1 0,1 1,1 0,0 0,0 0,0 1,1 1,1 1,1l0 1 -10 0 0 -1c0,0 0,-1 1,-1 0,0 0,0 0,0 1,-1 1,-1 1,-1 0,-1 0,-1 0,-2l0 -18c0,-1 0,-1 0,-2 0,0 0,0 -1,-1 0,0 0,0 0,0 -1,0 -1,-1 -1,-1l0 -1 10 0 0 1c0,0 -1,1 -1,1 0,0 0,0 -1,0 0,1 0,1 0,1 0,1 0,1 0,2l0 7 1 0c0,0 1,0 1,0 0,0 1,0 1,0 1,-1 1,-2 2,-3 2,-1 2,-2 3,-3 0,-1 1,-1 1,-2 0,0 0,-1 0,-1 0,-1 0,-1 0,-1 -1,-1 -1,-1 -2,-1l0 -1 11 0 0 1c-1,0 -1,1 -2,1 0,0 0,0 -1,1 0,0 -1,1 -2,2l-6 7 7 11zm24 0c0,0 0,1 0,1 0,1 0,1 0,1 0,1 0,1 0,1 1,0 1,0 1,0 0,1 1,1 1,1l0 1 -11 0 0 -1c1,0 1,-1 2,-1 0,0 0,0 0,0 0,-1 0,-1 1,-1 0,-1 0,-1 0,-2l0 -18c0,-1 0,-1 0,-2 -1,0 -1,0 -1,-1 0,0 0,0 0,0 -1,0 -1,-1 -2,-1l0 -1 11 0 0 1c0,0 -1,1 -1,1 0,0 -1,0 -1,0 0,1 0,1 0,1 0,1 0,1 0,2l0 18zm31 -23l0 1c-1,0 -1,1 -1,1 0,0 -1,0 -1,0 0,0 0,1 0,1 0,1 0,1 0,2l0 23 -6 0 -9 -16c-1,-2 -2,-4 -2,-5l-1 0c0,3 1,6 1,9l0 7c0,1 0,2 0,2 0,1 0,1 0,1 1,0 1,1 2,1l0 1 -8 0 0 -1c1,0 1,-1 1,-1 0,0 1,0 1,0 0,-1 0,-1 0,-1 0,-1 0,-1 0,-2l0 -18c0,-1 0,-2 0,-2 0,0 0,-1 0,-1 -1,0 -1,-1 -2,-1l0 -1 8 0 8 13c0,0 1,2 1,3 1,1 2,3 2,4l1 0c-1,-4 -1,-7 -1,-11l0 -4c0,-1 0,-1 0,-2 0,0 0,-1 0,-1 0,0 0,0 -1,0 0,0 0,-1 -1,-1l0 -1 8 0zm14 0c3,0 4,0 6,0 1,1 3,1 4,2 1,1 2,2 3,3 1,1 1,2 2,4 0,1 0,3 0,4 0,3 0,4 -1,6 0,2 -1,3 -2,5 -1,1 -2,2 -3,2 -1,1 -3,1 -5,2 -1,0 -3,0 -5,0l-9 0 0 -1c0,0 0,-1 1,-1 0,0 0,0 0,0 1,-1 1,-1 1,-1 0,-1 0,-1 0,-2l0 -18c0,-1 0,-1 0,-2 0,0 0,0 -1,-1 0,0 0,0 0,0 -1,0 -1,-1 -1,-1l0 -1 10 0zm-2 26c0,0 1,0 2,0 1,0 3,-1 4,-1 1,0 1,-1 2,-1 1,-1 1,-3 2,-4 0,-2 0,-4 0,-6 0,-3 0,-5 -1,-7 0,-1 -1,-3 -3,-3 -1,-1 -2,-2 -4,-2 -1,0 -2,0 -2,0l0 24zm33 2c-4,0 -7,-1 -9,-3 -2,-2 -3,-6 -3,-11 0,-3 1,-5 2,-8 1,-2 2,-4 4,-5 2,-1 4,-1 7,-1 4,0 7,1 9,3 2,2 3,6 3,11 0,2 0,4 -1,6 0,2 -1,4 -2,5 -1,1 -3,2 -4,3 -2,0 -4,0 -6,0zm-5 -14c0,4 0,7 1,9 1,2 3,3 5,3 1,0 2,0 3,-1 0,0 1,-1 1,-2 1,-1 1,-2 1,-4 1,-1 1,-3 1,-4 0,-3 -1,-6 -1,-7 0,-2 -1,-4 -2,-5 -1,-1 -2,-1 -3,-1 -2,0 -4,1 -5,3 -1,2 -1,5 -1,9zm47 -14l0 1c0,0 -1,1 -1,1 0,0 0,0 -1,0 0,0 0,1 0,1 0,1 0,1 0,2l0 23 -5 0 -9 -16c-2,-2 -3,-4 -3,-5l0 0c0,3 0,6 0,9l0 7c0,1 0,2 0,2 0,1 0,1 1,1 0,0 0,1 1,1l0 1 -8 0 0 -1c1,0 1,-1 1,-1 1,0 1,0 1,0 0,-1 0,-1 0,-1 0,-1 0,-1 0,-2l0 -18c0,-1 0,-2 0,-2 0,0 0,-1 0,-1 -1,0 -1,-1 -2,-1l0 -1 9 0 7 13c0,0 1,2 2,3 0,1 1,3 1,4l1 0c0,-4 0,-7 0,-11l0 -4c0,-1 0,-1 -1,-2 0,0 0,-1 0,-1 0,0 0,0 0,0 -1,0 -1,-1 -2,-1l0 -1 8 0zm24 0l0 6 -3 0c0,-1 0,-2 -1,-2 0,-1 0,-1 -1,-1 0,-1 -1,-1 -2,-1l-5 0 0 10 3 0c1,0 1,0 1,0 1,0 1,0 1,-1 1,0 1,-1 1,-2l2 0 0 9 -2 0c0,-1 0,-2 -1,-2 0,-1 0,-1 0,-1 -1,0 -1,0 -2,0l-3 0 0 11 5 0c0,0 1,0 1,0 0,0 1,-1 1,-1 0,0 0,0 1,0 0,-1 0,-1 0,-1 0,0 1,-1 1,-1 0,-1 0,-2 1,-2l2 0 0 7 -20 0 0 -1c0,0 1,-1 1,-1 0,0 1,0 1,0 0,-1 0,-1 0,-1 0,-1 0,-1 0,-2l0 -18c0,-1 0,-1 0,-2 0,0 0,0 0,-1 0,0 -1,0 -1,0 0,0 -1,-1 -1,-1l0 -1 20 0zm7 21c0,2 1,3 1,4 1,1 2,1 4,1 1,0 1,0 2,0 1,-1 1,-1 2,-2 0,0 0,-1 0,-2 0,-1 0,-2 0,-2 -1,-1 -1,-1 -2,-2 -1,-1 -1,-1 -3,-2 -1,0 -2,-1 -3,-1 0,-1 -1,-2 -2,-2 0,-1 -1,-2 -1,-3 -1,-1 -1,-1 -1,-2 0,-2 1,-4 1,-5 1,-1 3,-2 4,-3 2,0 4,0 6,0 1,0 2,0 3,0 1,0 2,0 4,0l0 6 -3 0c0,-1 -1,-1 -1,-2 0,-1 -1,-1 -1,-2 -1,0 -2,0 -3,0 0,0 -1,0 -2,0 0,1 -1,1 -1,2 -1,0 -1,1 -1,2 0,0 0,1 1,2 0,0 1,1 1,1 1,1 2,2 3,2 2,1 3,2 4,3 1,1 2,2 2,3 1,1 1,2 1,3 0,2 0,3 -1,5 -1,1 -2,2 -3,2 -2,1 -4,1 -6,1 -1,0 -2,0 -4,0 -1,0 -3,0 -4,0l0 -7 3 0zm27 2c0,0 0,1 0,1 0,1 0,1 0,1 0,1 1,1 1,1 0,0 0,0 0,0 1,1 1,1 1,1l0 1 -10 0 0 -1c0,0 1,-1 1,-1 0,0 0,0 0,0 1,-1 1,-1 1,-1 0,-1 0,-1 0,-2l0 -18c0,-1 0,-1 0,-2 0,0 0,0 -1,-1 0,0 0,0 0,0 0,0 -1,-1 -1,-1l0 -1 10 0 0 1c0,0 -1,1 -1,1 0,0 0,0 0,0 -1,1 -1,1 -1,1 0,1 0,1 0,2l0 18zm21 -4l-9 0 -1 2c0,1 0,1 0,2 0,0 0,1 0,2 0,1 0,2 2,2l0 1 -9 0 0 -1c1,0 1,0 1,-1 1,0 1,0 2,-1 0,-1 0,-1 1,-2l8 -23 6 0 6 23c1,1 1,2 1,2 0,1 1,1 1,1 0,0 1,1 1,1l0 1 -11 0 0 -1c1,0 1,-1 2,-1 0,0 0,-1 0,-1 0,-1 0,-1 0,-2 0,0 0,-1 -1,-2l0 -2zm-8 -2l7 0 -3 -12 -4 12z"/>
  </g>
 </g>
</svg>
